<svg width="40" height="44" viewBox="0 0 40 44" fill="none" xmlns="http://www.w3.org/2000/svg">
<path d="M19.2138 3.37205C20.0802 2.40445 21.1146 1.63383 22.2567 1.10489C23.3988 0.575955 24.626 0.299226 25.8671 0.290758C27.1083 0.282291 28.3386 0.542253 29.4867 1.05557C30.6348 1.56888 31.6779 2.32532 32.5555 3.28102C33.433 4.23672 34.1276 5.37264 34.5988 6.6229C35.0701 7.87316 35.3086 9.21286 35.3007 10.5643C35.2927 11.9157 35.0384 13.252 34.5525 14.4956C34.0666 15.7392 33.3587 16.8653 32.47 17.8087L17.8881 33.6888C17.3674 34.2652 16.7471 34.7237 16.0628 35.0377C15.3786 35.3518 14.644 35.5152 13.9015 35.5186C13.159 35.522 12.4232 35.3653 11.7365 35.0574C11.0499 34.7496 10.426 34.2969 9.90092 33.7252C9.37581 33.1535 8.95983 32.4743 8.67699 31.7267C8.39415 30.9791 8.25004 30.178 8.25297 29.3694C8.25591 28.5609 8.40583 27.761 8.69409 27.0159C8.98235 26.2707 9.40325 25.5951 9.9325 25.028L24.5163 9.14792L27.1675 12.0348L12.5838 27.9149C12.4047 28.1033 12.2618 28.3285 12.1636 28.5776C12.0653 28.8267 12.0136 29.0946 12.0114 29.3657C12.0092 29.6368 12.0567 29.9057 12.151 30.1566C12.2452 30.4075 12.3845 30.6355 12.5605 30.8271C12.7366 31.0188 12.9459 31.1704 13.1763 31.2731C13.4068 31.3758 13.6537 31.4274 13.9026 31.4251C14.1516 31.4227 14.3976 31.3664 14.6264 31.2594C14.8551 31.1524 15.062 30.9968 15.235 30.8018L29.8206 14.9218C30.343 14.3529 30.7574 13.6777 31.0401 12.9345C31.3228 12.1913 31.4683 11.3948 31.4683 10.5904C31.4683 9.78594 31.3228 8.98941 31.0401 8.24622C30.7574 7.50304 30.343 6.82777 29.8206 6.25896C29.2983 5.69016 28.6781 5.23895 27.9956 4.93112C27.3131 4.62328 26.5816 4.46484 25.8428 4.46484C25.1041 4.46484 24.3726 4.62328 23.69 4.93112C23.0075 5.23895 22.3874 5.69016 21.865 6.25896L7.28125 22.1411C5.57352 24.0664 4.62857 26.6451 4.64993 29.3216C4.67129 31.9982 5.65725 34.5586 7.39545 36.4513C9.13365 38.344 11.485 39.4176 13.9431 39.4409C16.4012 39.4641 18.7694 38.4352 20.5375 36.5757L36.4488 19.2521L39.1 22.1411L23.1906 39.4646C20.7291 42.145 17.3905 43.6508 13.9094 43.6508C10.4282 43.6508 7.08967 42.145 4.62813 39.4646C2.16659 36.7843 0.783707 33.149 0.783707 29.3584C0.783707 25.5678 2.16659 21.9325 4.62813 19.2521L19.2138 3.37205Z" fill="#4A4A4A" fill-opacity="0.51"/>
</svg>
